<?xml version="1.0" standalone="no"?>
<!DOCTYPE svg PUBLIC "-//W3C//DTD SVG 20010904//EN"
 "http://www.w3.org/TR/2001/REC-SVG-20010904/DTD/svg10.dtd">
<svg version="1.0" xmlns="http://www.w3.org/2000/svg"
 width="1024.000000pt" height="1024.000000pt" viewBox="0 0 1024.000000 1024.000000"
 preserveAspectRatio="xMidYMid meet">

<g transform="translate(0.000000,1024.000000) scale(0.100000,-0.100000)"
fill="#000000" stroke="none">
<path d="M6946 6451 c-3 -5 -15 -7 -25 -4 -10 3 -22 0 -25 -6 -4 -6 -16 -11
-27 -11 -11 0 -18 -4 -15 -9 3 -4 -54 -9 -127 -10 -73 0 -126 3 -119 7 10 7
10 11 -3 22 -13 11 -15 10 -10 -3 9 -21 -13 -31 -32 -15 -13 10 -15 10 -9 0 6
-10 -6 -12 -53 -11 -35 1 -58 6 -54 11 3 6 -4 5 -15 -1 -12 -6 -24 -16 -27
-21 -3 -6 -11 -10 -16 -10 -6 0 -7 5 -4 10 9 14 -8 13 -23 -2 -9 -9 -12 -9
-12 0 0 10 -5 10 -20 2 -14 -7 -20 -7 -20 0 0 5 -7 10 -16 10 -8 0 -12 -4 -9
-10 3 -5 -2 -11 -12 -12 -10 0 -24 -2 -31 -2 -7 -1 -17 -7 -21 -15 -5 -7 -13
-11 -19 -7 -6 3 -13 0 -15 -6 -4 -10 -8 -9 -16 2 -8 11 -11 11 -11 2 0 -10 -5
-10 -20 -2 -14 7 -20 7 -20 0 0 -5 -5 -10 -11 -10 -5 0 -7 5 -3 11 4 7 -16 9
-67 6 -167 -12 -189 -12 -189 -2 0 6 -4 4 -9 -4 -6 -9 -16 -11 -32 -5 -32 11
-43 11 -50 2 -3 -5 -19 -10 -35 -13 -16 -2 -51 -7 -79 -11 -27 -4 -54 -10 -60
-13 -5 -4 -26 -8 -45 -10 -19 -2 -43 -7 -52 -12 -22 -12 -58 -11 -58 1 0 6
-15 10 -32 10 -26 0 -30 3 -18 11 12 9 12 10 -3 5 -10 -3 -25 -6 -33 -6 -9 0
-13 -4 -10 -9 3 -4 -6 -6 -21 -3 -19 4 -24 2 -18 -8 6 -9 4 -11 -4 -5 -7 4
-53 -3 -101 -16 -74 -19 -86 -24 -73 -34 15 -11 15 -13 -3 -23 -12 -6 -31 -12
-45 -14 -13 -2 -30 -7 -36 -11 -10 -6 -11 -2 -3 18 9 23 8 26 -7 22 -25 -7
-428 -106 -673 -166 -113 -27 -290 -69 -394 -92 -174 -39 -190 -41 -201 -25
-12 15 -13 15 -19 0 -3 -8 -6 -20 -6 -25 0 -5 285 -9 708 -10 389 -1 744 -4
790 -7 l83 -7 -33 -31 c-18 -18 -89 -78 -158 -134 -179 -146 -471 -382 -501
-405 -14 -11 -118 -94 -231 -185 -112 -91 -294 -237 -404 -325 -563 -451 -637
-518 -738 -672 -91 -138 -136 -259 -156 -417 -16 -129 -30 -117 -30 25 0 154
13 276 41 399 l21 96 -80 123 c-85 129 -155 264 -204 391 -16 41 -26 62 -23
45 4 -25 3 -27 -6 -12 -6 10 -8 30 -5 45 5 20 4 23 -4 12 -8 -13 -11 -11 -16
8 -4 12 -10 22 -15 22 -14 0 -11 -17 6 -34 25 -25 15 -99 -13 -89 -10 4 -13 2
-8 -5 5 -8 -8 -11 -44 -11 -39 1 -56 -3 -74 -20 -12 -12 -26 -18 -29 -14 -4 3
-7 1 -7 -6 0 -6 -14 -25 -30 -41 -23 -23 -27 -30 -14 -30 12 0 9 -6 -12 -22
-16 -13 -32 -22 -36 -21 -5 2 -8 -4 -8 -12 0 -8 -7 -15 -15 -15 -8 0 -15 -5
-15 -10 0 -6 -12 -15 -27 -21 -22 -8 -24 -12 -13 -19 13 -8 12 -10 -2 -10 -10
0 -18 5 -18 12 0 6 -8 1 -19 -10 -11 -13 -30 -22 -47 -22 -16 0 -47 -7 -69
-14 -27 -10 -42 -11 -46 -4 -4 6 -10 1 -14 -11 -3 -11 -3 -26 1 -32 4 -8 3 -9
-4 -5 -21 13 -13 -9 62 -160 164 -328 381 -591 681 -825 l110 -86 -3 -59 c-10
-181 -101 -452 -215 -644 -58 -98 -80 -128 -160 -227 -67 -83 -71 -113 -13
-113 31 0 165 42 341 108 287 107 643 289 890 455 l66 44 157 -39 c343 -85
578 -113 937 -112 275 0 389 9 620 45 750 119 1451 470 1891 946 326 353 503
696 585 1133 17 92 22 160 24 340 2 179 1 196 -4 85 -4 -77 -8 -125 -9 -107
-3 44 -20 41 -24 -5 -2 -21 -8 -38 -15 -38 -6 0 -14 -3 -18 -7 -4 -4 -13 -4
-20 -2 -7 3 -16 0 -20 -5 -3 -6 -11 -8 -17 -5 -6 4 -8 3 -5 -3 4 -6 1 -17 -6
-26 -15 -21 -117 -35 -117 -17 0 7 -7 10 -15 6 -13 -4 -14 4 -10 52 3 34 -4
12 -15 -53 -142 -779 -712 -1458 -1501 -1789 -292 -122 -585 -190 -934 -216
-177 -13 -272 -13 -280 0 -4 6 11 10 38 10 53 0 259 34 337 55 102 29 339 139
326 153 -3 2 -62 -6 -133 -17 -221 -35 -412 -45 -596 -32 -451 32 -767 113
-1122 285 -184 90 -323 173 -309 186 11 9 265 70 414 99 424 82 690 99 1670
107 456 3 690 9 720 17 29 7 61 26 92 55 49 45 44 37 258 542 15 36 30 77 34
92 l6 26 -58 -14 c-31 -7 -115 -29 -187 -49 -235 -64 -299 -77 -315 -67 -8 5
-32 8 -53 6 -27 -2 -36 0 -30 9 5 8 2 8 -9 -1 -11 -9 -18 -10 -23 -2 -3 5 -14
10 -23 10 -9 0 -23 14 -30 30 -9 19 -21 30 -33 30 -11 0 -18 -4 -15 -8 3 -5
-1 -9 -9 -9 -8 0 -12 4 -9 9 3 4 0 8 -6 8 -6 0 -8 6 -4 13 4 6 4 9 -1 5 -4 -4
-16 -3 -26 2 -12 7 -19 6 -22 -3 -3 -7 -6 -8 -6 -1 -1 8 -21 8 -71 -1 -38 -7
-70 -9 -70 -6 0 11 130 34 235 41 69 4 5 7 -210 8 -170 1 -395 5 -499 9 l-189
6 25 21 c24 20 214 181 503 426 77 66 239 204 361 307 121 103 242 206 270
228 249 201 524 438 577 499 72 83 143 195 152 241 3 17 2 23 -2 15 -5 -9 -14
-15 -20 -14 -7 1 -32 2 -55 3 -32 1 -39 4 -28 11 12 8 10 10 -8 10 -13 0 -20
-4 -17 -10 3 -6 -4 -10 -17 -10 -16 0 -19 3 -10 9 11 7 10 10 -3 15 -21 8 -23
8 -29 -3z m-1929 -237 c-3 -3 -12 -4 -19 -1 -8 3 -5 6 6 6 11 1 17 -2 13 -5z
m876 -1581 c-7 -2 -19 -2 -25 0 -7 3 -2 5 12 5 14 0 19 -2 13 -5z m-56 -9 c-3
-3 -12 -4 -19 -1 -8 3 -5 6 6 6 11 1 17 -2 13 -5z"/>
<path d="M5828 6443 c7 -3 16 -2 19 1 4 3 -2 6 -13 5 -11 0 -14 -3 -6 -6z"/>
<path d="M8173 5535 c0 -22 2 -30 4 -17 2 12 2 30 0 40 -3 9 -5 -1 -4 -23z"/>
<path d="M7922 5420 c0 -19 2 -27 5 -17 2 9 2 25 0 35 -3 9 -5 1 -5 -18z"/>
<path d="M7913 5295 c0 -33 2 -45 4 -27 2 18 2 45 0 60 -2 15 -4 0 -4 -33z"/>
<path d="M2742 5145 c0 -16 2 -22 5 -12 2 9 2 23 0 30 -3 6 -5 -1 -5 -18z"/>
<path d="M2752 5080 c0 -14 2 -19 5 -12 2 6 2 18 0 25 -3 6 -5 1 -5 -13z"/>
<path d="M2771 4974 c0 -11 3 -14 6 -6 3 7 2 16 -1 19 -3 4 -6 -2 -5 -13z"/>
<path d="M2781 4934 c0 -11 3 -14 6 -6 3 7 2 16 -1 19 -3 4 -6 -2 -5 -13z"/>
<path d="M2791 4894 c0 -11 3 -14 6 -6 3 7 2 16 -1 19 -3 4 -6 -2 -5 -13z"/>
<path d="M6200 4589 c0 -5 5 -7 10 -4 6 3 10 8 10 11 0 2 -4 4 -10 4 -5 0 -10
-5 -10 -11z"/>
<path d="M6235 4581 c-3 -5 -2 -12 3 -15 5 -3 9 1 9 9 0 17 -3 19 -12 6z"/>
<path d="M5824 3702 c-42 -27 -66 -88 -53 -135 28 -104 177 -119 223 -23 25
54 21 91 -17 132 -42 46 -104 56 -153 26z"/>
<path d="M6248 3704 c-46 -25 -72 -93 -57 -148 27 -98 178 -106 223 -12 22 46
20 77 -7 117 -39 57 -102 75 -159 43z"/>
</g>
</svg>
